Complete name : Chilly Christmas 2012 DVDRip x264 AAC-UNiQUE.mp4
Format : MPEG-4
Format profile : Base Media
Codec ID : isom
File size : 1.39 GiB
Duration : 1h 24mn
Overall bit rate mode : Variable
Overall bit rate : 2 350 Kbps
Encoded date : UTC 2012-11-06 13:37:48

Video
ID : 1
Format : AVC
Format/Info : Advanced Video Codec
Format profile : High@L4.1
Format settings, CABAC : Yes
Format settings, ReFrames : 3 frames
Codec ID : avc1
Codec ID/Info : Advanced Video Coding
Duration : 1h 24mn
Bit rate mode : Variable
Bit rate : 2 000 Kbps
Maximum bit rate : 40.0 Mbps
Width : 720 pixels
Height : 400 pixels
Display aspect ratio : 16:9
Frame rate mode : Constant
Frame rate : 23.976 fps
Color space : YUV
Chroma subsampling : 4:2:0
Bit depth : 8 bits
Scan type : Progressive
Bits/(Pixel*Frame) : 0.290
Stream size : 1.18 GiB (85%)
Writing library : x264 core 128 r2216 198a7ea

Audio
ID : 2
Format : AAC
Format/Info : Advanced Audio Codec
Format profile : LC
Codec ID : 40
Duration : 1h 24mn
Bit rate mode : Variable
Bit rate : 353 Kbps
Maximum bit rate : 383 Kbps
Channel(s) : 6 channels
Channel positions : Front: L C R, Side: L R, LFE
Sampling rate : 48.0 KHz
Compression mode : Lossy
Stream size : 209 MiB (15%)
Language : English
Encoded date : UTC 2012-11-06 13:38:20

Source : COMPLETE.NTSC.DVDR-KART3LDVD - Thanks!

Storyline
Tom Arnold and C. Thomas Howell headline this family-friendly tale of a Sol Cal kid who must train his dog for apartment living after his dad gets a job offer in New York City, but finds the process interrupted by a nefarious dognapper intent on abducting his four-legged friend.

iMDB: http://www.imdb.com/title/tt2232446/

Screens
 
http://www.shotpix.com/images/56928090076359515924.png 
http://www.shotpix.com/images/51002396988852574610.png 
http://www.shotpix.com/images/93423480160488110063.png 
http://www.shotpix.com/images/20510184411605065374.png
